<?xml version="1.0" encoding="UTF-8"?>
<svg id="Layer_1" xmlns="http://www.w3.org/2000/svg" version="1.1" viewBox="0 0 1080 1080">
  <!-- Generator: Adobe Illustrator 29.0.1, SVG Export Plug-In . SVG Version: 2.1.0 Build 192)  -->
  <defs>
    <style>
      .st0 {
        fill: #f4f4f4;
      }
    </style>
  </defs>
  <path class="st0" d="M682.2,993.4v-377.1h113.3l12.4-150.4h-119.5v-67c0-4.4,6.8-19,10.5-22.5,3.9-3.7,18.7-9.5,23.5-9.5h85.5v-127.8c-82.4,4.1-189-20.4-244.9,57-12.2,16.9-29.2,57.3-29.2,78v91.7h-76.2v147.3c0,.2,2.9,3.1,3.1,3.1h73.2v377.1H182.5c-40,0-94-57.5-95.6-98.1l-.3-706.7c6.4-53.8,49.9-97.1,104.1-102h702.8c52.5,7.7,93.7,49.2,100,102v704.8c-.9,41.3-55.3,100-95.9,100h-215.3Z"/>
</svg>