<svg width="303" height="83" viewBox="0 0 303 83" fill="none" xmlns="http://www.w3.org/2000/svg">
<path d="M13.7267 30.3755C13.6116 30.1799 13.416 30.0129 13.1399 29.8749C12.8638 29.7368 12.5562 29.6248 12.2169 29.5384C11.8773 29.4522 11.5295 29.3862 11.1729 29.34C10.8163 29.294 10.5 29.2651 10.2239 29.2538H10.3273V38.9341V39.4517C10.3273 39.7391 10.4195 39.9923 10.6034 40.2108L10.6726 40.2973C10.8566 40.4812 11.0808 40.5904 11.3456 40.625V40.6423H7.9978V40.625C8.2626 40.5904 8.4925 40.4756 8.6881 40.28L8.7399 40.2108C8.9239 39.9923 9.01599 39.7335 9.01599 39.4344V39.2102V38.9341V29.2538H9.11949C8.83179 29.2651 8.5098 29.294 8.1532 29.34C7.7966 29.3862 7.4516 29.4522 7.118 29.5384C6.7843 29.6248 6.4793 29.7368 6.2032 29.8749C5.9271 30.0129 5.7318 30.1799 5.6167 30.3755L5.9617 28.9258H9.67169H13.3817L13.7267 30.3755ZM23.0799 40.6595H22.7176H20.0717H19.7265V40.6423C19.9768 40.6077 20.1981 40.4926 20.3909 40.2973L20.4601 40.2281C20.6412 40.0096 20.733 39.7564 20.733 39.469V36.2939C20.7217 35.7647 20.7044 35.2442 20.6815 34.7323C20.6585 34.2204 20.5893 33.766 20.4742 33.3691C20.3592 32.9723 20.184 32.6531 19.9481 32.4116C19.7123 32.1698 19.3815 32.049 18.9557 32.049C18.5073 32.049 18.1277 32.1814 17.817 32.4459C17.5064 32.7106 17.2504 33.0326 17.0491 33.4122C16.8479 33.7918 16.7042 34.1829 16.6177 34.5858C16.5315 34.9883 16.4884 35.3276 16.4884 35.6037V38.9511V39.469C16.4884 39.7564 16.5803 40.0096 16.7674 40.2281L16.819 40.2973C17.0146 40.4926 17.2476 40.6077 17.512 40.6423V40.6595H17.1671H14.5039H14.1589V40.6423C14.4234 40.6077 14.6536 40.4926 14.8492 40.2973L14.9181 40.2281C15.0907 39.9979 15.1769 39.7451 15.1769 39.469V30.5651C15.1769 29.8978 14.9526 29.3227 14.5039 28.8396L16.4884 28.2183L16.4913 33.9817C16.5718 33.7631 16.6809 33.5301 16.819 33.2829C16.9599 33.0355 17.1296 32.8056 17.3309 32.5927C17.5322 32.3798 17.774 32.2044 18.0586 32.0663C18.3403 31.9283 18.6711 31.8594 19.0507 31.8594C19.7095 31.8594 20.2299 31.9685 20.6182 32.1871C21.0035 32.4056 21.2997 32.699 21.5097 33.0672C21.7167 33.4352 21.8547 33.8553 21.9239 34.3267C21.9928 34.7984 22.033 35.293 22.0446 35.8109V38.9511V39.469C22.0676 39.7681 22.1654 40.0269 22.338 40.2454L22.3723 40.28C22.5566 40.4869 22.7924 40.6077 23.0799 40.6423V40.6595ZM28.9819 40.2108C29.4652 40.2108 29.8907 40.1391 30.2589 39.9951C30.6271 39.8514 30.9375 39.6932 31.1906 39.5206C31.4897 39.3137 31.7428 39.0835 31.95 38.8304L32.0878 38.9511C31.8349 39.2964 31.5186 39.607 31.1387 39.8831C30.8167 40.113 30.4199 40.3231 29.9482 40.5127C29.4765 40.7026 28.913 40.7976 28.2573 40.7976C27.636 40.7976 27.0552 40.6797 26.5146 40.4438C25.9737 40.208 25.5021 39.8888 25.0995 39.4863C24.697 39.0835 24.3807 38.6118 24.1505 38.0712C23.9203 37.5307 23.8052 36.9496 23.8052 36.3285C23.8052 35.7071 23.9203 35.1263 24.1505 34.5858C24.3807 34.0449 24.697 33.5732 25.0995 33.1707C25.5021 32.7682 25.9737 32.4487 26.5146 32.2132C27.0552 31.9773 27.636 31.8594 28.2573 31.8594C28.7404 31.8594 29.1718 31.9254 29.5513 32.0578C29.9309 32.1899 30.2589 32.3713 30.535 32.6012C30.5579 32.6242 30.5696 32.6358 30.5696 32.6358C30.7535 32.7852 30.9145 32.9465 31.0526 33.1188C31.3057 33.4295 31.484 33.7286 31.5875 34.0163C31.6909 34.3037 31.7658 34.5512 31.812 34.7581C31.8579 34.9653 31.9067 35.1206 31.9585 35.2241C32.0104 35.3276 32.1224 35.3565 32.295 35.3103V35.5002L30.5004 36.0178L25.2895 37.6052C25.3813 37.847 25.4879 38.0797 25.6086 38.3042C25.7294 38.5285 25.8759 38.7385 26.0486 38.9341L26.3936 39.2791C26.7159 39.5668 27.0897 39.7938 27.5152 39.9608C27.941 40.1275 28.4297 40.2108 28.9819 40.2108ZM28.2573 32.0663C27.5784 32.0663 27.0061 32.2333 26.5404 32.5666C26.0744 32.9003 25.7121 33.3289 25.4533 33.8521C25.1945 34.3757 25.0448 34.9537 25.0046 35.5864C24.9643 36.2191 25.0363 36.8288 25.2203 37.4156L30.5868 35.7936C30.6328 35.4829 30.6356 35.1119 30.5953 34.6804C30.5551 34.2493 30.4457 33.8408 30.2674 33.4553C30.0891 33.0701 29.8362 32.7421 29.5083 32.472C29.1803 32.2015 28.7633 32.0663 28.2573 32.0663ZM51.3118 39.7621C51.1737 39.9577 51.0068 40.1303 50.8115 40.28C50.6502 40.4064 50.4489 40.5243 50.2074 40.6338C49.9659 40.7429 49.6898 40.7976 49.3791 40.7976C48.8845 40.7976 48.5106 40.6306 48.2575 40.2973C48.0046 39.9636 47.8666 39.5206 47.8433 38.9684H47.8263V32.2905H46.8943V31.9629C47.2279 31.9629 47.5213 31.8795 47.7744 31.7126C48.0276 31.5459 48.2402 31.3446 48.4128 31.1088C48.5854 30.8729 48.7178 30.6255 48.8096 30.3667C48.9018 30.1079 48.9477 29.8921 48.9477 29.7195H49.1376V31.9629H50.9665V32.2905H49.1376V38.8822C49.1376 39.3652 49.2354 39.6989 49.431 39.8831C49.6266 40.0671 49.8738 40.1592 50.1728 40.1592C50.3455 40.1592 50.5008 40.136 50.6388 40.0901C50.7769 40.0441 50.892 39.9923 50.9838 39.9347C51.0989 39.8658 51.1967 39.7853 51.2772 39.6932L51.3118 39.7621ZM53.6073 30.8239L52.8136 29.6679C52.8136 29.4264 52.8856 29.2192 53.0293 29.0466C53.173 28.8742 53.3658 28.7878 53.6073 28.7878C53.8491 28.7878 54.0416 28.8742 54.1856 29.0466C54.3293 29.2192 54.401 29.4264 54.401 29.6679L53.6073 30.8239ZM55.4019 40.6595H55.0569H52.4167H52.0718V40.6423C52.3479 40.6077 52.5777 40.4869 52.762 40.28L52.8136 40.2281C52.9976 40.0096 53.0897 39.7508 53.0897 39.4517V39.2272V38.9511V34.2405C53.0897 33.5732 52.8655 32.9981 52.4167 32.515L54.384 31.9801V38.9511V39.469C54.384 39.7564 54.4758 40.0096 54.6601 40.2281L54.729 40.2973C54.9016 40.4926 55.1258 40.6077 55.4019 40.6423V40.6595ZM65.1692 44.818H64.8243H62.1668H61.8218V44.8007C62.0863 44.7664 62.3164 44.6513 62.512 44.4557L62.5636 44.3865C62.7479 44.168 62.8397 43.9151 62.8397 43.6274V39.814C62.7708 39.8945 62.673 39.9923 62.5463 40.1074C62.4199 40.2224 62.2561 40.3316 62.0545 40.4353C61.8533 40.5388 61.6174 40.6278 61.3473 40.7026C61.0769 40.7775 60.7633 40.8149 60.4067 40.8149C59.4634 40.8149 58.6753 40.5935 58.0427 40.1504C57.41 39.7077 56.9386 39.1555 56.6279 38.4939C56.3172 37.8326 56.1619 37.1134 56.1619 36.337C56.1619 35.5606 56.3229 34.8417 56.6452 34.1801C56.9672 33.5188 57.4445 32.9666 58.0772 32.5235C58.7099 32.0808 59.498 31.8594 60.4413 31.8594C60.752 31.8594 61.0281 31.8937 61.2696 31.9629C61.5111 32.0317 61.724 32.1239 61.908 32.2389C62.2646 32.4688 62.6441 32.561 63.0469 32.515C63.4495 32.4688 63.7831 32.2905 64.0476 31.9801L64.1513 31.8594V43.1271V43.6274C64.1513 43.9265 64.2432 44.1853 64.4271 44.4038L64.479 44.4557C64.5711 44.5478 64.6774 44.6255 64.7982 44.6887C64.9189 44.7519 65.0428 44.7893 65.1692 44.8007V44.818ZM60.4413 40.625C60.9244 40.625 61.3184 40.5618 61.6234 40.4353C61.9281 40.3086 62.1724 40.1706 62.3567 40.0212C62.5636 39.8486 62.7246 39.653 62.8397 39.4344V34.2232C62.8397 33.8666 62.7708 33.5503 62.6328 33.2742C62.4947 32.9981 62.3105 32.7651 62.0806 32.5754C61.8504 32.3855 61.5888 32.2446 61.2954 32.1525C61.002 32.0606 60.7001 32.0147 60.3895 32.0147C59.9064 32.0147 59.4835 32.1383 59.1212 32.3855C58.759 32.633 58.4599 32.9606 58.2241 33.3691C57.9882 33.7776 57.8099 34.2377 57.6892 34.7496C57.5681 35.2615 57.5109 35.7876 57.5165 36.3285C57.5222 36.8691 57.5854 37.3983 57.7062 37.9159C57.8272 38.4335 58.0112 38.8938 58.2584 39.2964C58.5058 39.6989 58.8106 40.0212 59.1731 40.2627C59.5354 40.5042 59.958 40.625 60.4413 40.625ZM71.5891 40.6595V38.658C71.5086 38.8766 71.3992 39.1124 71.2612 39.3652C71.1231 39.6184 70.9508 39.8514 70.7436 40.0643C70.5366 40.2772 70.292 40.4555 70.0102 40.5992C69.7285 40.7429 69.4033 40.8149 69.0354 40.8149C68.3798 40.8149 67.859 40.7026 67.4738 40.4784C67.0883 40.2539 66.7921 39.9549 66.5851 39.581C66.3779 39.2071 66.2399 38.7816 66.171 38.3042C66.1018 37.8269 66.0616 37.3291 66.0502 36.8115H66.033V34.2405C66.033 33.9185 65.9782 33.6078 65.8688 33.3087C65.7597 33.0097 65.5899 32.7449 65.36 32.515L67.3443 31.9629V36.3285C67.3443 36.8691 67.3587 37.3955 67.3873 37.9074C67.4163 38.4193 67.488 38.8766 67.6031 39.2791C67.7181 39.6816 67.8936 40.0067 68.1295 40.2539C68.3653 40.5014 68.6961 40.625 69.1216 40.625C69.5703 40.625 69.9499 40.4898 70.2605 40.2196C70.5709 39.9492 70.8269 39.6212 71.0284 39.236C71.2297 38.8505 71.3734 38.4536 71.4596 38.0454C71.5461 37.637 71.5891 37.2948 71.5891 37.0187V34.2405C71.5891 33.5732 71.3678 32.9981 70.9275 32.515L72.9004 31.9629V39.9001L73.5734 40.6423L71.5891 40.6595ZM79.6135 40.2108C80.0968 40.2108 80.5222 40.1391 80.8905 39.9951C81.2587 39.8514 81.5691 39.6932 81.8222 39.5206C82.1213 39.3137 82.3744 39.0835 82.5816 38.8304L82.7194 38.9511C82.4665 39.2964 82.1502 39.607 81.7703 39.8831C81.4483 40.113 81.0515 40.3231 80.5798 40.5127C80.1081 40.7026 79.5446 40.7976 78.8889 40.7976C78.2676 40.7976 77.6867 40.6797 77.1462 40.4438C76.6053 40.208 76.1336 39.8888 75.7311 39.4863C75.3286 39.0835 75.0123 38.6118 74.7821 38.0712C74.5519 37.5307 74.4368 36.9496 74.4368 36.3285C74.4368 35.7071 74.5519 35.1263 74.7821 34.5858C75.0123 34.0449 75.3286 33.5732 75.7311 33.1707C76.1336 32.7682 76.6053 32.4487 77.1462 32.2132C77.6867 31.9773 78.2676 31.8594 78.8889 31.8594C79.3719 31.8594 79.8034 31.9254 80.1829 32.0578C80.5625 32.1899 80.8905 32.3713 81.1666 32.6012C81.1895 32.6242 81.2011 32.6358 81.2011 32.6358C81.3851 32.7852 81.5461 32.9465 81.6842 33.1188C81.9373 33.4295 82.1156 33.7286 82.2191 34.0163C82.3225 34.3037 82.3974 34.5512 82.4436 34.7581C82.4895 34.9653 82.5382 35.1206 82.5901 35.2241C82.642 35.3276 82.754 35.3565 82.9266 35.3103V35.5002L81.132 36.0178L75.921 37.6052C76.0129 37.847 76.1195 38.0797 76.2402 38.3042C76.361 38.5285 76.5075 38.7385 76.6802 38.9341L77.0251 39.2791C77.3474 39.5668 77.7213 39.7938 78.1468 39.9608C78.5726 40.1275 79.0613 40.2108 79.6135 40.2108ZM78.8889 32.0663C78.21 32.0663 77.6377 32.2333 77.172 32.5666C76.706 32.9003 76.3437 33.3289 76.0849 33.8521C75.8261 34.3757 75.6764 34.9537 75.6362 35.5864C75.5959 36.2191 75.6679 36.8288 75.8519 37.4156L81.2184 35.7936C81.2644 35.4829 81.2672 35.1119 81.2269 34.6804C81.1867 34.2493 81.0773 33.8408 80.899 33.4553C80.7207 33.0701 80.4678 32.7421 80.1399 32.472C79.8119 32.2015 79.3949 32.0663 78.8889 32.0663ZM87.9657 39.7621C87.8277 39.9577 87.6607 40.1303 87.4654 40.28C87.3041 40.4064 87.1029 40.5243 86.8614 40.6338C86.6199 40.7429 86.3438 40.7976 86.0331 40.7976C85.5384 40.7976 85.1645 40.6306 84.9114 40.2973C84.6586 39.9636 84.5205 39.5206 84.4973 38.9684H84.4803V32.2905H83.5482V31.9629C83.8819 31.9629 84.1753 31.8795 84.4284 31.7126C84.6815 31.5459 84.8941 31.3446 85.0667 31.1088C85.2394 30.8729 85.3718 30.6255 85.4636 30.3667C85.5557 30.1079 85.6016 29.8921 85.6016 29.7195H85.7916V31.9629H87.6205V32.2905H85.7916V38.8822C85.7916 39.3652 85.8894 39.6989 86.085 39.8831C86.2805 40.0671 86.5277 40.1592 86.8268 40.1592C86.9994 40.1592 87.1547 40.136 87.2928 40.0901C87.4308 40.0441 87.5459 39.9923 87.6378 39.9347C87.7529 39.8658 87.8507 39.7853 87.9312 39.6932L87.9657 39.7621ZM93.1775 39.7621C93.0395 39.9577 92.8725 40.1303 92.6772 40.28C92.5159 40.4064 92.3147 40.5243 92.0731 40.6338C91.8316 40.7429 91.5555 40.7976 91.2449 40.7976C90.7502 40.7976 90.3763 40.6306 90.1232 40.2973C89.8703 39.9636 89.7323 39.5206 89.709 38.9684H89.692V32.2905H88.76V31.9629C89.0936 31.9629 89.387 31.8795 89.6402 31.7126C89.8933 31.5459 90.1059 31.3446 90.2785 31.1088C90.4512 30.8729 90.5835 30.6255 90.6754 30.3667C90.7675 30.1079 90.8134 29.8921 90.8134 29.7195H91.0033V31.9629H92.8323V32.2905H91.0033V38.8822C91.0033 39.3652 91.1011 39.6989 91.2967 39.8831C91.4923 40.0671 91.7395 40.1592 92.0386 40.1592C92.2112 40.1592 92.3665 40.136 92.5046 40.0901C92.6426 40.0441 92.7577 39.9923 92.8496 39.9347C92.9646 39.8658 93.0624 39.7853 93.1429 39.6932L93.1775 39.7621ZM98.8896 40.2108C99.3729 40.2108 99.7984 40.1391 100.167 39.9951C100.535 39.8514 100.845 39.6932 101.098 39.5206C101.397 39.3137 101.651 39.0835 101.858 38.8304L101.995 38.9511C101.743 39.2964 101.426 39.607 101.046 39.8831C100.724 40.113 100.328 40.3231 99.8559 40.5127C99.3843 40.7026 98.8207 40.7976 98.1651 40.7976C97.5437 40.7976 96.9629 40.6797 96.4223 40.4438C95.8815 40.208 95.4098 39.8888 95.0073 39.4863C94.6048 39.0835 94.2884 38.6118 94.0582 38.0712C93.8281 37.5307 93.713 36.9496 93.713 36.3285C93.713 35.7071 93.8281 35.1263 94.0582 34.5858C94.2884 34.0449 94.6048 33.5732 95.0073 33.1707C95.4098 32.7682 95.8815 32.4487 96.4223 32.2132C96.9629 31.9773 97.5437 31.8594 98.1651 31.8594C98.6481 31.8594 99.0795 31.9254 99.4591 32.0578C99.8387 32.1899 100.167 32.3713 100.443 32.6012C100.466 32.6242 100.477 32.6358 100.477 32.6358C100.661 32.7852 100.822 32.9465 100.96 33.1188C101.213 33.4295 101.392 33.7286 101.495 34.0163C101.599 34.3037 101.673 34.5512 101.72 34.7581C101.766 34.9653 101.814 35.1206 101.866 35.2241C101.918 35.3276 102.03 35.3565 102.203 35.3103V35.5002L100.408 36.0178L95.1972 37.6052C95.289 37.847 95.3956 38.0797 95.5164 38.3042C95.6371 38.5285 95.7837 38.7385 95.9563 38.9341L96.3013 39.2791C96.6236 39.5668 96.9975 39.7938 97.423 39.9608C97.8487 40.1275 98.3374 40.2108 98.8896 40.2108ZM98.1651 32.0663C97.4862 32.0663 96.9139 32.2333 96.4481 32.5666C95.9821 32.9003 95.6199 33.3289 95.361 33.8521C95.1022 34.3757 94.9526 34.9537 94.9123 35.5864C94.8721 36.2191 94.9441 36.8288 95.128 37.4156L100.495 35.7936C100.54 35.4829 100.543 35.1119 100.503 34.6804C100.463 34.2493 100.353 33.8408 100.175 33.4553C99.9968 33.0701 99.744 32.7421 99.416 32.472C99.088 32.2015 98.6711 32.0663 98.1651 32.0663ZM162.186 40.6595V39.2445V38.2266V37.8124V37.7606L162.203 36.2939V36.3458C161.869 37.2084 161.525 37.9275 161.168 38.5027C160.811 39.0778 160.466 39.5379 160.133 39.8831C159.799 40.2281 159.483 40.4696 159.184 40.6077C158.884 40.7457 158.62 40.8149 158.39 40.8149C157.78 40.8149 157.266 40.6882 156.845 40.4353C156.426 40.1822 156.104 39.8715 155.879 39.5033C155.655 39.1354 155.534 38.7357 155.517 38.3042C155.499 37.8728 155.583 37.4788 155.767 37.1222C155.997 36.6851 156.267 36.3427 156.578 36.0955C156.888 35.848 157.228 35.6612 157.596 35.5348C157.964 35.4081 158.347 35.3247 158.743 35.2845C159.14 35.2442 159.54 35.204 159.943 35.1637C160.345 35.1235 160.739 35.0659 161.125 34.9911C161.51 34.9163 161.875 34.7811 162.22 34.5858C162.22 34.0795 162.14 33.6308 161.979 33.2396C161.818 32.8487 161.565 32.5955 161.22 32.4805C160.874 32.3654 160.506 32.328 160.115 32.3682C159.724 32.4085 159.339 32.4861 158.959 32.6012C158.58 32.7163 158.214 32.8544 157.864 33.0154C157.513 33.1764 157.205 33.326 156.94 33.4641L155.491 32.4286C155.848 32.2905 156.313 32.1497 156.888 32.0059C157.464 31.8622 158.131 31.7789 158.89 31.7556C159.178 31.7327 159.46 31.7443 159.736 31.7902C160.012 31.8361 160.282 31.9053 160.547 31.9974C161.053 32.1814 161.525 32.4229 161.962 32.722C162.192 32.8716 162.396 33.0383 162.571 33.2226C162.744 33.4065 162.896 33.6078 163.026 33.8264C163.152 34.0565 163.264 34.2895 163.357 34.5254C163.451 34.7609 163.497 34.9999 163.497 35.2414V37.8124V38.9341C163.497 39.0951 163.506 39.2215 163.523 39.3137C163.54 39.4055 163.575 39.4863 163.627 39.5552C163.679 39.6241 163.747 39.6904 163.834 39.7536C163.92 39.8168 164.032 39.8888 164.17 39.9693L162.186 40.6595ZM162.203 34.8789C161.743 35.0744 161.306 35.1924 160.892 35.2326C160.478 35.2729 160.078 35.3075 159.693 35.3364C159.307 35.365 158.928 35.4225 158.554 35.5087C158.18 35.5952 157.803 35.782 157.424 36.0697C157.228 36.2191 157.073 36.4175 156.958 36.665C156.843 36.9121 156.768 37.1769 156.733 37.4587C156.699 37.7404 156.699 38.0253 156.733 38.3127C156.768 38.6005 156.843 38.8593 156.958 39.0892C157.073 39.3193 157.222 39.5033 157.406 39.6413C157.59 39.7794 157.809 39.8429 158.062 39.8313C158.66 39.7967 159.178 39.6413 159.615 39.3652C160.052 39.0892 160.42 38.7788 160.719 38.4335C161.018 38.0885 161.254 37.7521 161.427 37.4241C161.599 37.0964 161.72 36.8634 161.789 36.7253C162.065 36.1732 162.203 35.6842 162.203 35.2587V34.8789ZM173.817 40.6595H173.454H170.809H170.463V40.6423C170.736 40.6077 170.958 40.4926 171.128 40.2973L171.197 40.2281C171.378 40.0096 171.47 39.7508 171.47 39.4517V36.2939C171.459 35.7647 171.441 35.2442 171.418 34.7323C171.395 34.2204 171.326 33.766 171.211 33.3691C171.096 32.9723 170.921 32.6531 170.685 32.4116C170.449 32.1698 170.118 32.049 169.693 32.049C169.244 32.049 168.864 32.1814 168.554 32.4459C168.243 32.7106 167.987 33.0326 167.786 33.4122C167.585 33.7918 167.441 34.1829 167.354 34.5858C167.268 34.9883 167.225 35.3276 167.225 35.6037V38.9511V39.469C167.225 39.7564 167.317 40.0096 167.504 40.2281L167.573 40.2973C167.746 40.4926 167.973 40.6077 168.249 40.6423V40.6595H167.904H165.241H165.258H164.896V40.6423C165.183 40.6077 165.413 40.4926 165.586 40.2973L165.638 40.2281C165.822 40.0096 165.914 39.7508 165.914 39.4517V34.2405C165.914 33.9185 165.859 33.6078 165.75 33.3087C165.64 33.0097 165.471 32.7449 165.241 32.515L167.225 31.9801L167.228 33.9817C167.309 33.7631 167.418 33.5301 167.556 33.2829C167.697 33.0355 167.866 32.8056 168.068 32.5927C168.269 32.3798 168.511 32.2044 168.795 32.0663C169.077 31.9283 169.408 31.8594 169.788 31.8594C170.446 31.8594 170.967 31.9685 171.355 32.1871C171.74 32.4056 172.036 32.699 172.247 33.0672C172.453 33.4352 172.592 33.8553 172.661 34.3267C172.73 34.7984 172.77 35.293 172.781 35.8109V38.9511V39.469C172.793 39.7564 172.891 40.0096 173.075 40.2281L173.126 40.2973C173.299 40.4926 173.529 40.6077 173.817 40.6423V40.6595ZM181.065 40.6595V39.2445V38.2266V37.8124V37.7606L181.082 36.2939V36.3458C180.748 37.2084 180.403 37.9275 180.047 38.5027C179.69 39.0778 179.345 39.5379 179.011 39.8831C178.678 40.2281 178.362 40.4696 178.062 40.6077C177.763 40.7457 177.499 40.8149 177.268 40.8149C176.659 40.8149 176.144 40.6882 175.724 40.4353C175.304 40.1822 174.982 39.8715 174.758 39.5033C174.534 39.1354 174.413 38.7357 174.396 38.3042C174.378 37.8728 174.462 37.4788 174.646 37.1222C174.876 36.6851 175.146 36.3427 175.457 36.0955C175.767 35.848 176.107 35.6612 176.475 35.5348C176.843 35.4081 177.225 35.3247 177.622 35.2845C178.019 35.2442 178.419 35.204 178.822 35.1637C179.224 35.1235 179.618 35.0659 180.004 34.9911C180.389 34.9163 180.754 34.7811 181.099 34.5858C181.099 34.0795 181.019 33.6308 180.858 33.2396C180.697 32.8487 180.444 32.5955 180.099 32.4805C179.753 32.3654 179.385 32.328 178.994 32.3682C178.603 32.4085 178.217 32.4861 177.838 32.6012C177.458 32.7163 177.093 32.8544 176.742 33.0154C176.391 33.1764 176.083 33.326 175.819 33.4641L174.37 32.4286C174.726 32.2905 175.192 32.1497 175.767 32.0059C176.343 31.8622 177.01 31.7789 177.769 31.7556C178.056 31.7327 178.338 31.7443 178.614 31.7902C178.89 31.8361 179.161 31.9053 179.426 31.9974C179.932 32.1814 180.403 32.4229 180.84 32.722C181.07 32.8716 181.275 33.0383 181.45 33.2226C181.623 33.4065 181.775 33.6078 181.905 33.8264C182.031 34.0565 182.143 34.2895 182.235 34.5254C182.33 34.7609 182.376 34.9999 182.376 35.2414V37.8124V38.9341C182.376 39.0951 182.385 39.2215 182.402 39.3137C182.419 39.4055 182.454 39.4863 182.505 39.5552C182.557 39.6241 182.626 39.6904 182.713 39.7536C182.799 39.8168 182.911 39.8888 183.049 39.9693L181.065 40.6595ZM181.082 34.8789C180.622 35.0744 180.185 35.1924 179.771 35.2326C179.356 35.2729 178.957 35.3075 178.571 35.3364C178.186 35.365 177.806 35.4225 177.432 35.5087C177.059 35.5952 176.682 35.782 176.302 36.0697C176.107 36.2191 175.951 36.4175 175.836 36.665C175.721 36.9121 175.646 37.1769 175.612 37.4587C175.578 37.7404 175.578 38.0253 175.612 38.3127C175.646 38.6005 175.721 38.8593 175.836 39.0892C175.951 39.3193 176.101 39.5033 176.285 39.6413C176.469 39.7794 176.688 39.8429 176.941 39.8313C177.539 39.7967 178.056 39.6413 178.494 39.3652C178.931 39.0892 179.299 38.7788 179.598 38.4335C179.897 38.0885 180.133 37.7521 180.305 37.4241C180.478 37.0964 180.599 36.8634 180.668 36.7253C180.944 36.1732 181.082 35.6842 181.082 35.2587V34.8789ZM185.394 39.5725C185.658 39.5725 186.026 39.5668 186.495 39.5552C186.967 39.5435 187.479 39.558 188.028 39.5983C188.58 39.6385 189.138 39.7162 189.699 39.8313C190.262 39.9464 190.774 40.1275 191.24 40.3747C191.706 40.6221 192.086 40.9501 192.376 41.3583C192.67 41.7668 192.816 42.2815 192.816 42.9026C192.816 43.4894 192.701 44.0041 192.471 44.4469C192.241 44.89 191.922 45.2639 191.513 45.5686C191.105 45.8736 190.622 46.1006 190.064 46.2503C189.506 46.3997 188.894 46.4745 188.226 46.4745C187.548 46.4745 186.944 46.3595 186.414 46.1296C185.885 45.8994 185.408 45.6088 184.982 45.2582C184.557 44.9073 184.169 44.5189 183.818 44.0934C183.467 43.6677 183.13 43.2592 182.808 42.8683C182.486 42.4771 182.164 42.1262 181.842 41.8155C181.52 41.5051 181.175 41.2922 180.807 41.1772H182.653C182.941 41.3152 183.199 41.5338 183.429 41.8328C183.659 42.1319 183.89 42.4655 184.12 42.8337C184.35 43.2017 184.588 43.5815 184.836 43.9724C185.083 44.3636 185.365 44.7202 185.681 45.0425C185.997 45.3645 186.363 45.629 186.777 45.8362C187.191 46.0431 187.674 46.1466 188.226 46.1466C188.79 46.1466 189.282 46.0692 189.702 45.9138C190.122 45.7585 190.472 45.5428 190.754 45.2667C191.036 44.9906 191.249 44.6626 191.393 44.2831C191.536 43.9035 191.608 43.4894 191.608 43.0406C191.608 42.4542 191.482 41.9652 191.229 41.574C190.976 41.1828 190.651 40.8665 190.254 40.625C189.857 40.3835 189.414 40.2023 188.925 40.0816C188.436 39.9608 187.956 39.88 187.484 39.8398C187.013 39.7995 186.575 39.7853 186.173 39.7967C185.77 39.8083 185.46 39.8256 185.241 39.8486L185.034 39.7451L185.811 38.2093C185.304 37.8873 184.902 37.4788 184.603 36.9841C184.304 36.4895 184.154 35.9489 184.154 35.3622C184.154 34.8789 184.255 34.4245 184.456 33.999C184.657 33.5732 184.933 33.2024 185.284 32.8861C185.635 32.5698 186.044 32.3195 186.509 32.1355C186.975 31.9512 187.479 31.8594 188.019 31.8594C188.134 31.8594 188.246 31.8651 188.356 31.8767C188.465 31.888 188.571 31.9053 188.675 31.9283C188.928 31.5603 189.181 31.2582 189.434 31.0223C189.687 30.7865 189.94 30.6399 190.194 30.5824C190.389 30.5365 190.564 30.5104 190.72 30.5047C190.875 30.499 191.01 30.5019 191.125 30.5135C191.252 30.5248 191.361 30.5478 191.453 30.5824V31.2899C191.338 31.2094 191.217 31.1402 191.091 31.0827C190.976 31.0252 190.846 30.9736 190.702 30.9276C190.559 30.8814 190.401 30.8585 190.228 30.8585C190.009 30.8585 189.785 30.9563 189.555 31.1519C189.325 31.3475 189.095 31.6119 188.865 31.9456C189.302 32.0377 189.705 32.1871 190.073 32.3943C190.441 32.6012 190.76 32.8544 191.03 33.1534C191.301 33.4525 191.513 33.7918 191.669 34.1716C191.824 34.5512 191.902 34.948 191.902 35.3622C191.902 35.8452 191.801 36.2967 191.6 36.7166C191.398 37.1366 191.122 37.5046 190.766 37.8209C190.409 38.1373 189.998 38.3876 189.526 38.5715C189.055 38.7558 188.557 38.8476 188.028 38.8476C187.66 38.8476 187.309 38.7989 186.969 38.7011C186.63 38.6033 186.311 38.4738 186.015 38.3127L185.394 39.5725ZM188.692 32.2044C188.462 32.5726 188.232 32.9808 188.002 33.4295C187.772 33.8782 187.553 34.344 187.346 34.8273C187.139 35.3103 186.941 35.7908 186.751 36.2681C186.561 36.7455 186.391 37.1911 186.242 37.6052C186.472 37.9275 186.739 38.1804 187.044 38.3646C187.349 38.5486 187.674 38.6407 188.019 38.6407C188.364 38.6407 188.684 38.5543 188.977 38.3819C189.27 38.2093 189.529 37.9763 189.753 37.6829C189.978 37.3895 190.153 37.0417 190.28 36.6389C190.406 36.2364 190.469 35.8109 190.469 35.3622C190.469 34.9826 190.426 34.6229 190.34 34.2836C190.254 33.9443 190.13 33.6367 189.969 33.3606C189.808 33.0845 189.618 32.8487 189.4 32.6531C189.181 32.4575 188.945 32.3078 188.692 32.2044ZM185.586 35.3622C185.586 35.7417 185.632 36.1012 185.727 36.4405C185.822 36.7801 185.949 37.0876 186.104 37.3637C186.253 36.9496 186.42 36.5125 186.604 36.0524C186.788 35.5923 186.984 35.132 187.191 34.6719C187.398 34.2119 187.614 33.766 187.838 33.3345C188.062 32.9031 188.295 32.5034 188.537 32.1355C188.445 32.1122 188.359 32.0952 188.281 32.0836C188.201 32.072 188.114 32.0663 188.022 32.0663C187.691 32.0663 187.375 32.1525 187.079 32.3251C186.783 32.4978 186.521 32.7336 186.299 33.0326C186.075 33.3317 185.9 33.6798 185.776 34.0766C185.65 34.4735 185.586 34.9021 185.586 35.3622ZM198.356 40.2108C198.839 40.2108 199.265 40.1391 199.633 39.9951C200.001 39.8514 200.311 39.6932 200.565 39.5206C200.864 39.3137 201.117 39.0835 201.324 38.8304L201.462 38.9511C201.209 39.2964 200.893 39.607 200.513 39.8831C200.191 40.113 199.794 40.3231 199.322 40.5127C198.851 40.7026 198.287 40.7976 197.631 40.7976C197.01 40.7976 196.429 40.6797 195.889 40.4438C195.348 40.208 194.876 39.8888 194.474 39.4863C194.071 39.0835 193.755 38.6118 193.525 38.0712C193.294 37.5307 193.179 36.9496 193.179 36.3285C193.179 35.7071 193.294 35.1263 193.525 34.5858C193.755 34.0449 194.071 33.5732 194.474 33.1707C194.876 32.7682 195.348 32.4487 195.889 32.2132C196.429 31.9773 197.01 31.8594 197.631 31.8594C198.114 31.8594 198.546 31.9254 198.925 32.0578C199.305 32.1899 199.633 32.3713 199.909 32.6012C199.932 32.6242 199.944 32.6358 199.944 32.6358C200.128 32.7852 200.289 32.9465 200.427 33.1188C200.68 33.4295 200.858 33.7286 200.961 34.0163C201.065 34.3037 201.14 34.5512 201.186 34.7581C201.232 34.9653 201.281 35.1206 201.333 35.2241C201.384 35.3276 201.496 35.3565 201.669 35.3103V35.5002L199.874 36.0178L194.663 37.6052C194.755 37.847 194.862 38.0797 194.983 38.3042C195.103 38.5285 195.25 38.7385 195.423 38.9341L195.768 39.2791C196.09 39.5668 196.464 39.7938 196.889 39.9608C197.315 40.1275 197.804 40.2108 198.356 40.2108ZM197.631 32.0663C196.953 32.0663 196.38 32.2333 195.914 32.5666C195.448 32.9003 195.086 33.3289 194.827 33.8521C194.568 34.3757 194.419 34.9537 194.379 35.5864C194.338 36.2191 194.41 36.8288 194.594 37.4156L199.961 35.7936C200.007 35.4829 200.01 35.1119 199.969 34.6804C199.929 34.2493 199.82 33.8408 199.641 33.4553C199.463 33.0701 199.21 32.7421 198.882 32.472C198.554 32.2015 198.137 32.0663 197.631 32.0663Z" fill="#C5AC8E"/>
<path d="M216.837 40.6595H216.492H213.835H213.489V40.6423C213.754 40.6077 213.984 40.4926 214.18 40.2973L214.231 40.2281C214.415 40.0096 214.508 39.7564 214.508 39.469V36.2939C214.508 35.7647 214.493 35.2442 214.464 34.7323C214.436 34.2204 214.364 33.766 214.249 33.3691C214.134 32.9723 213.958 32.6531 213.722 32.4116C213.487 32.1698 213.156 32.049 212.73 32.049C212.282 32.049 211.902 32.1814 211.591 32.4459C211.281 32.7106 211.025 33.0326 210.823 33.4122C210.622 33.7918 210.478 34.1829 210.392 34.5858C210.306 34.9883 210.263 35.3276 210.263 35.6037V35.5864C210.263 35.6326 210.266 35.6728 210.271 35.7071C210.277 35.7417 210.28 35.7763 210.28 35.8109V39.5033C210.303 39.791 210.389 40.0269 210.539 40.2108L210.66 40.3316C210.832 40.5042 211.045 40.6077 211.298 40.6423V40.6595H210.953H208.295H207.95V40.6423C208.238 40.6077 208.48 40.4784 208.675 40.2539C208.871 40.0297 208.968 39.7621 208.968 39.4517V39.2272V38.9511V36.2939C208.968 35.7647 208.954 35.2442 208.925 34.7323C208.897 34.2204 208.828 33.766 208.718 33.3691C208.609 32.9723 208.433 32.6531 208.192 32.4116C207.95 32.1698 207.617 32.049 207.191 32.049C206.743 32.049 206.363 32.1814 206.052 32.4459C205.742 32.7106 205.489 33.0326 205.293 33.4122C205.098 33.7918 204.957 34.1829 204.87 34.5858C204.784 34.9883 204.741 35.3276 204.741 35.6037V39.469C204.741 39.7564 204.833 40.0096 205.017 40.2281L205.086 40.2973C205.27 40.4926 205.495 40.6077 205.759 40.6423V40.6595H205.414H202.757H202.412V40.6423C202.688 40.6077 202.918 40.4869 203.102 40.28L203.153 40.2281C203.338 40.0096 203.429 39.7508 203.429 39.4517V39.2272V38.9511V34.2405C203.429 33.5732 203.205 32.9981 202.757 32.515L204.741 31.9801V33.9817C204.822 33.7631 204.931 33.5301 205.069 33.2829C205.207 33.0355 205.377 32.8056 205.578 32.5927C205.779 32.3798 206.021 32.2044 206.303 32.0663C206.584 31.9283 206.915 31.8594 207.295 31.8594C207.778 31.8594 208.189 31.9226 208.528 32.049C208.868 32.1757 209.147 32.3481 209.366 32.5666C209.584 32.7852 209.756 33.0471 209.883 33.3518C210.01 33.6568 210.102 33.9817 210.159 34.3267C210.228 34.1197 210.326 33.8723 210.453 33.5848C210.579 33.2971 210.746 33.027 210.953 32.7738C211.16 32.5207 211.419 32.305 211.729 32.1267C212.04 31.9484 212.408 31.8594 212.834 31.8594C213.478 31.8594 213.996 31.9685 214.387 32.1871C214.778 32.4056 215.077 32.699 215.284 33.0672C215.491 33.4352 215.629 33.8553 215.698 34.3267C215.767 34.7984 215.807 35.293 215.819 35.8109V38.9511V39.469C215.819 39.7564 215.911 40.0096 216.095 40.2281L216.147 40.2973C216.342 40.4926 216.572 40.6077 216.837 40.6423V40.6595ZM222.756 40.2108C223.239 40.2108 223.665 40.1391 224.033 39.9951C224.401 39.8514 224.712 39.6932 224.965 39.5206C225.264 39.3137 225.517 39.0835 225.724 38.8304L225.862 38.9511C225.609 39.2964 225.293 39.607 224.913 39.8831C224.591 40.113 224.194 40.3231 223.722 40.5127C223.251 40.7026 222.687 40.7976 222.032 40.7976C221.41 40.7976 220.829 40.6797 220.289 40.4438C219.748 40.208 219.276 39.8888 218.874 39.4863C218.471 39.0835 218.155 38.6118 217.925 38.0712C217.695 37.5307 217.579 36.9496 217.579 36.3285C217.579 35.7071 217.695 35.1263 217.925 34.5858C218.155 34.0449 218.471 33.5732 218.874 33.1707C219.276 32.7682 219.748 32.4487 220.289 32.2132C220.829 31.9773 221.41 31.8594 222.032 31.8594C222.515 31.8594 222.946 31.9254 223.326 32.0578C223.705 32.1899 224.033 32.3713 224.309 32.6012C224.332 32.6242 224.344 32.6358 224.344 32.6358C224.528 32.7852 224.689 32.9465 224.827 33.1188C225.08 33.4295 225.258 33.7286 225.362 34.0163C225.465 34.3037 225.54 34.5512 225.586 34.7581C225.632 34.9653 225.681 35.1206 225.733 35.2241C225.785 35.3276 225.897 35.3565 226.069 35.3103V35.5002L224.275 36.0178L219.064 37.6052C219.156 37.847 219.262 38.0797 219.383 38.3042C219.504 38.5285 219.65 38.7385 219.823 38.9341L220.168 39.2791C220.49 39.5668 220.864 39.7938 221.289 39.9608C221.715 40.1275 222.204 40.2108 222.756 40.2108ZM222.032 32.0663C221.353 32.0663 220.78 32.2333 220.315 32.5666C219.849 32.9003 219.486 33.3289 219.228 33.8521C218.969 34.3757 218.819 34.9537 218.779 35.5864C218.739 36.2191 218.811 36.8288 218.995 37.4156L224.361 35.7936C224.407 35.4829 224.41 35.1119 224.37 34.6804C224.329 34.2493 224.22 33.8408 224.042 33.4553C223.863 33.0701 223.61 32.7421 223.283 32.472C222.955 32.2015 222.538 32.0663 222.032 32.0663ZM235.733 40.6595H235.371H232.725H232.379V40.6423C232.653 40.6077 232.874 40.4926 233.044 40.2973L233.113 40.2281C233.294 40.0096 233.386 39.7508 233.386 39.4517V36.2939C233.375 35.7647 233.357 35.2442 233.334 34.7323C233.311 34.2204 233.242 33.766 233.127 33.3691C233.012 32.9723 232.837 32.6531 232.601 32.4116C232.365 32.1698 232.034 32.049 231.609 32.049C231.16 32.049 230.781 32.1814 230.47 32.4459C230.159 32.7106 229.903 33.0326 229.702 33.4122C229.501 33.7918 229.357 34.1829 229.271 34.5858C229.185 34.9883 229.141 35.3276 229.141 35.6037V38.9511V39.469C229.141 39.7564 229.233 40.0096 229.42 40.2281L229.489 40.2973C229.662 40.4926 229.889 40.6077 230.165 40.6423V40.6595H229.82H227.157H227.174H226.812V40.6423C227.099 40.6077 227.33 40.4926 227.502 40.2973L227.554 40.2281C227.738 40.0096 227.83 39.7508 227.83 39.4517V34.2405C227.83 33.9185 227.775 33.6078 227.666 33.3087C227.557 33.0097 227.387 32.7449 227.157 32.515L229.141 31.9801L229.144 33.9817C229.225 33.7631 229.334 33.5301 229.472 33.2829C229.613 33.0355 229.783 32.8056 229.984 32.5927C230.185 32.3798 230.427 32.2044 230.712 32.0663C230.993 31.9283 231.324 31.8594 231.704 31.8594C232.362 31.8594 232.883 31.9685 233.271 32.1871C233.656 32.4056 233.953 32.699 234.163 33.0672C234.37 33.4352 234.508 33.8553 234.577 34.3267C234.646 34.7984 234.686 35.293 234.698 35.8109V38.9511V39.469C234.709 39.7564 234.807 40.0096 234.991 40.2281L235.043 40.2973C235.215 40.4926 235.445 40.6077 235.733 40.6423V40.6595ZM239.944 39.7621C239.806 39.9577 239.639 40.1303 239.444 40.28C239.282 40.4064 239.081 40.5243 238.84 40.6338C238.598 40.7429 238.322 40.7976 238.011 40.7976C237.517 40.7976 237.143 40.6306 236.89 40.2973C236.637 39.9636 236.499 39.5206 236.476 38.9684H236.459V32.2905H235.526V31.9629C235.86 31.9629 236.153 31.8795 236.407 31.7126C236.66 31.5459 236.872 31.3446 237.045 31.1088C237.218 30.8729 237.35 30.6255 237.442 30.3667C237.534 30.1079 237.58 29.8921 237.58 29.7195H237.77V31.9629H239.599V32.2905H237.77V38.8822C237.77 39.3652 237.868 39.6989 238.063 39.8831C238.259 40.0671 238.506 40.1592 238.805 40.1592C238.978 40.1592 239.133 40.136 239.271 40.0901C239.409 40.0441 239.524 39.9923 239.616 39.9347C239.731 39.8658 239.829 39.7853 239.909 39.6932L239.944 39.7621ZM263.585 38.9511C263.332 39.2964 263.016 39.607 262.636 39.8831C262.314 40.113 261.917 40.3231 261.445 40.5127C260.974 40.7026 260.416 40.7976 259.772 40.7976C259.15 40.7976 258.57 40.6797 258.029 40.4438C257.488 40.208 257.016 39.8888 256.614 39.4863C256.211 39.0835 255.892 38.6118 255.656 38.0712C255.42 37.5307 255.302 36.9496 255.302 36.3285C255.302 35.7071 255.42 35.1263 255.656 34.5858C255.892 34.0449 256.211 33.5732 256.614 33.1707C257.016 32.7682 257.488 32.4487 258.029 32.2132C258.57 31.9773 259.15 31.8594 259.772 31.8594C260.37 31.8594 260.876 31.8909 261.29 31.9541C261.704 32.0176 262.038 32.0836 262.291 32.1525C262.59 32.2333 262.826 32.3251 262.998 32.4286L262.791 33.5848C262.619 33.2971 262.389 33.0443 262.101 32.8257C261.859 32.6301 261.549 32.4547 261.169 32.2993C260.79 32.144 260.324 32.0663 259.772 32.0663C259.07 32.0663 258.477 32.2676 257.994 32.6704C257.511 33.0729 257.152 33.5763 256.916 34.1801C256.68 34.7842 256.571 35.437 256.588 36.1386C256.605 36.8404 256.758 37.4932 257.045 38.097C257.333 38.7011 257.761 39.2042 258.331 39.607C258.9 40.0096 259.616 40.2108 260.479 40.2108C260.974 40.2108 261.405 40.1391 261.773 39.9951C262.141 39.8514 262.452 39.6932 262.705 39.5206C263.004 39.3137 263.257 39.0835 263.464 38.8304L263.585 38.9511ZM273.249 40.6595H272.887H270.241H269.895V40.6423C270.146 40.6077 270.367 40.4926 270.56 40.2973L270.629 40.2281C270.81 40.0096 270.902 39.7564 270.902 39.469V36.2939C270.891 35.7647 270.873 35.2442 270.85 34.7323C270.827 34.2204 270.758 33.766 270.643 33.3691C270.528 32.9723 270.353 32.6531 270.117 32.4116C269.881 32.1698 269.55 32.049 269.125 32.049C268.676 32.049 268.297 32.1814 267.986 32.4459C267.675 32.7106 267.419 33.0326 267.218 33.4122C267.017 33.7918 266.873 34.1829 266.787 34.5858C266.7 34.9883 266.657 35.3276 266.657 35.6037V38.9511V39.469C266.657 39.7564 266.749 40.0096 266.936 40.2281L266.988 40.2973C267.184 40.4926 267.417 40.6077 267.681 40.6423V40.6595H267.336H264.673H264.328V40.6423C264.592 40.6077 264.823 40.4926 265.018 40.2973L265.087 40.2281C265.26 39.9979 265.346 39.7451 265.346 39.469V30.5651C265.346 29.8978 265.122 29.3227 264.673 28.8396L266.657 28.2183L266.66 33.9817C266.741 33.7631 266.85 33.5301 266.988 33.2829C267.129 33.0355 267.299 32.8056 267.5 32.5927C267.701 32.3798 267.943 32.2044 268.228 32.0663C268.509 31.9283 268.84 31.8594 269.22 31.8594C269.878 31.8594 270.399 31.9685 270.787 32.1871C271.172 32.4056 271.469 32.699 271.679 33.0672C271.886 33.4352 272.024 33.8553 272.093 34.3267C272.162 34.7984 272.202 35.293 272.214 35.8109V38.9511V39.469C272.237 39.7681 272.334 40.0269 272.507 40.2454L272.541 40.28C272.726 40.4869 272.961 40.6077 273.249 40.6423V40.6595ZM278.452 31.8594C279.073 31.8594 279.657 31.9773 280.198 32.2132C280.741 32.4487 281.213 32.7682 281.616 33.1707C282.018 33.5732 282.34 34.0449 282.576 34.5858C282.812 35.1263 282.93 35.7071 282.93 36.3285C282.93 36.9496 282.812 37.5335 282.576 38.0797C282.34 38.6263 282.018 39.1008 281.616 39.5033C281.213 39.9061 280.741 40.2253 280.198 40.4611C279.657 40.697 279.073 40.8149 278.452 40.8149C277.831 40.8149 277.247 40.697 276.707 40.4611C276.163 40.2253 275.691 39.9061 275.289 39.5033C274.886 39.1008 274.564 38.6263 274.328 38.0797C274.092 37.5335 273.974 36.9496 273.974 36.3285C273.974 35.7071 274.092 35.1263 274.328 34.5858C274.564 34.0449 274.886 33.5732 275.289 33.1707C275.691 32.7682 276.163 32.4487 276.707 32.2132C277.247 31.9773 277.831 31.8594 278.452 31.8594ZM278.452 40.6423C278.889 40.6423 279.298 40.53 279.683 40.3058C280.066 40.0816 280.402 39.7737 280.689 39.3825C280.977 38.9914 281.201 38.5341 281.368 38.0109C281.535 37.4873 281.618 36.9266 281.618 36.3285C281.618 35.7417 281.535 35.1867 281.368 34.6634C281.201 34.1399 280.977 33.6826 280.689 33.2915C280.402 32.9003 280.066 32.5927 279.683 32.3682C279.298 32.144 278.889 32.0317 278.452 32.0317C278.015 32.0317 277.607 32.144 277.221 32.3682C276.839 32.5927 276.502 32.9003 276.215 33.2915C275.927 33.6826 275.703 34.1399 275.536 34.6634C275.369 35.1867 275.286 35.7417 275.286 36.3285C275.286 36.9266 275.369 37.4873 275.536 38.0109C275.703 38.5341 275.927 38.9914 276.215 39.3825C276.502 39.7737 276.839 40.0816 277.221 40.3058C277.607 40.53 278.015 40.6423 278.452 40.6423ZM288.616 31.8594C289.237 31.8594 289.821 31.9773 290.362 32.2132C290.906 32.4487 291.377 32.7682 291.78 33.1707C292.182 33.5732 292.505 34.0449 292.74 34.5858C292.976 35.1263 293.094 35.7071 293.094 36.3285C293.094 36.9496 292.976 37.5335 292.74 38.0797C292.505 38.6263 292.182 39.1008 291.78 39.5033C291.377 39.9061 290.906 40.2253 290.362 40.4611C289.821 40.697 289.237 40.8149 288.616 40.8149C287.995 40.8149 287.411 40.697 286.871 40.4611C286.327 40.2253 285.855 39.9061 285.453 39.5033C285.05 39.1008 284.728 38.6263 284.492 38.0797C284.256 37.5335 284.138 36.9496 284.138 36.3285C284.138 35.7071 284.256 35.1263 284.492 34.5858C284.728 34.0449 285.05 33.5732 285.453 33.1707C285.855 32.7682 286.327 32.4487 286.871 32.2132C287.411 31.9773 287.995 31.8594 288.616 31.8594ZM288.616 40.6423C289.053 40.6423 289.462 40.53 289.847 40.3058C290.23 40.0816 290.566 39.7737 290.854 39.3825C291.141 38.9914 291.366 38.5341 291.533 38.0109C291.699 37.4873 291.783 36.9266 291.783 36.3285C291.783 35.7417 291.699 35.1867 291.533 34.6634C291.366 34.1399 291.141 33.6826 290.854 33.2915C290.566 32.9003 290.23 32.5927 289.847 32.3682C289.462 32.144 289.053 32.0317 288.616 32.0317C288.179 32.0317 287.771 32.144 287.385 32.3682C287.003 32.5927 286.666 32.9003 286.379 33.2915C286.091 33.6826 285.867 34.1399 285.7 34.6634C285.533 35.1867 285.45 35.7417 285.45 36.3285C285.45 36.9266 285.533 37.4873 285.7 38.0109C285.867 38.5341 286.091 38.9914 286.379 39.3825C286.666 39.7737 287.003 40.0816 287.385 40.3058C287.771 40.53 288.179 40.6423 288.616 40.6423ZM297.167 40.6595H296.822H294.165H293.82V40.6423C294.096 40.6077 294.326 40.4869 294.51 40.28L294.561 40.2281C294.746 40.0096 294.837 39.7508 294.837 39.4517V39.2272V38.9511V30.5651C294.837 29.8978 294.613 29.3227 294.165 28.8396L296.149 28.2183V38.9511V39.469C296.149 39.7564 296.241 40.0096 296.425 40.2281L296.494 40.2973C296.667 40.4926 296.891 40.6077 297.167 40.6423V40.6595ZM45.703 40.6423H39.3097H37.5239V40.625C37.7883 40.5904 38.0185 40.4756 38.2141 40.28L38.283 40.2108C38.3751 40.1074 38.4412 39.9894 38.4814 39.8571C38.5217 39.725 38.5477 39.5898 38.5591 39.4517V30.0129C38.5245 29.7484 38.4125 29.5183 38.2226 29.3227C38.0327 29.1271 37.8 29.0063 37.5239 28.9604V28.9258H37.8861H38.5591H39.8361H45.5303V30.8239L45.3231 30.5305C45.0357 30.128 44.6731 29.8145 44.236 29.5903C43.7989 29.3658 43.3332 29.2538 42.8385 29.2538H39.8704V33.4122H43.4596L44.2879 32.7047V34.4304L43.4596 33.7229H39.8704V40.3143L43.615 40.3316C44.2593 40.3316 44.8514 40.1419 45.3923 39.7621L46.0825 39.2618L45.703 40.6423ZM114.265 40.6595V39.2445V38.2266V37.8124V37.7606L114.282 36.2939V36.3458C113.948 37.2084 113.603 37.9275 113.247 38.5027C112.89 39.0778 112.545 39.5379 112.211 39.8831C111.878 40.2281 111.561 40.4696 111.262 40.6077C110.963 40.7457 110.699 40.8149 110.468 40.8149C109.859 40.8149 109.344 40.6882 108.924 40.4353C108.504 40.1822 108.182 39.8715 107.958 39.5033C107.734 39.1354 107.613 38.7357 107.596 38.3042C107.578 37.8728 107.662 37.4788 107.846 37.1222C108.076 36.6851 108.346 36.3427 108.657 36.0955C108.967 35.848 109.307 35.6612 109.675 35.5348C110.043 35.4081 110.425 35.3247 110.822 35.2845C111.219 35.2442 111.619 35.204 112.022 35.1637C112.424 35.1235 112.818 35.0659 113.204 34.9911C113.589 34.9163 113.954 34.7811 114.299 34.5858C114.299 34.0795 114.219 33.6308 114.058 33.2396C113.897 32.8487 113.644 32.5955 113.299 32.4805C112.953 32.3654 112.585 32.328 112.194 32.3682C111.803 32.4085 111.417 32.4861 111.038 32.6012C110.658 32.7163 110.293 32.8544 109.942 33.0154C109.591 33.1764 109.284 33.326 109.019 33.4641L107.57 32.4286C107.926 32.2905 108.392 32.1497 108.967 32.0059C109.543 31.8622 110.21 31.7789 110.969 31.7556C111.256 31.7327 111.539 31.7443 111.814 31.7902C112.09 31.8361 112.361 31.9053 112.626 31.9974C113.132 32.1814 113.603 32.4229 114.04 32.722C114.271 32.8716 114.475 33.0383 114.65 33.2226C114.823 33.4065 114.975 33.6078 115.104 33.8264C115.231 34.0565 115.343 34.2895 115.435 34.5254C115.53 34.7609 115.576 34.9999 115.576 35.2414V37.8124V38.9341C115.576 39.0951 115.585 39.2215 115.602 39.3137C115.619 39.4055 115.654 39.4863 115.705 39.5552C115.757 39.6241 115.826 39.6904 115.913 39.7536C115.999 39.8168 116.111 39.8888 116.249 39.9693L114.265 40.6595ZM114.282 34.8789C113.822 35.0744 113.385 35.1924 112.971 35.2326C112.556 35.2729 112.157 35.3075 111.771 35.3364C111.386 35.365 111.006 35.4225 110.633 35.5087C110.259 35.5952 109.882 35.782 109.502 36.0697C109.307 36.2191 109.151 36.4175 109.036 36.665C108.921 36.9121 108.846 37.1769 108.812 37.4587C108.778 37.7404 108.778 38.0253 108.812 38.3127C108.846 38.6005 108.921 38.8593 109.036 39.0892C109.151 39.3193 109.301 39.5033 109.485 39.6413C109.669 39.7794 109.888 39.8429 110.141 39.8313C110.739 39.7967 111.256 39.6413 111.694 39.3652C112.131 39.0892 112.499 38.7788 112.798 38.4335C113.097 38.0885 113.333 37.7521 113.505 37.4241C113.678 37.0964 113.799 36.8634 113.868 36.7253C114.144 36.1732 114.282 35.6842 114.282 35.2587V34.8789ZM125.895 40.6595H125.533H122.887H122.542V40.6423C122.815 40.6077 123.037 40.4926 123.206 40.2973L123.276 40.2281C123.457 40.0096 123.549 39.7508 123.549 39.4517V36.2939C123.537 35.7647 123.52 35.2442 123.497 34.7323C123.474 34.2204 123.405 33.766 123.29 33.3691C123.175 32.9723 123 32.6531 122.764 32.4116C122.528 32.1698 122.197 32.049 121.771 32.049C121.323 32.049 120.943 32.1814 120.633 32.4459C120.322 32.7106 120.066 33.0326 119.865 33.4122C119.663 33.7918 119.52 34.1829 119.433 34.5858C119.347 34.9883 119.304 35.3276 119.304 35.6037V38.9511V39.469C119.304 39.7564 119.396 40.0096 119.583 40.2281L119.652 40.2973C119.824 40.4926 120.052 40.6077 120.328 40.6423V40.6595H119.983H117.319H117.337H116.975V40.6423C117.262 40.6077 117.492 40.4926 117.665 40.2973L117.716 40.2281C117.901 40.0096 117.992 39.7508 117.992 39.4517V34.2405C117.992 33.9185 117.938 33.6078 117.829 33.3087C117.719 33.0097 117.55 32.7449 117.319 32.515L119.304 31.9801L119.307 33.9817C119.387 33.7631 119.496 33.5301 119.635 33.2829C119.775 33.0355 119.945 32.8056 120.146 32.5927C120.348 32.3798 120.59 32.2044 120.874 32.0663C121.156 31.9283 121.487 31.8594 121.866 31.8594C122.525 31.8594 123.045 31.9685 123.434 32.1871C123.819 32.4056 124.115 32.699 124.325 33.0672C124.532 33.4352 124.67 33.8553 124.739 34.3267C124.808 34.7984 124.849 35.293 124.86 35.8109V38.9511V39.469C124.872 39.7564 124.969 40.0096 125.154 40.2281L125.205 40.2973C125.378 40.4926 125.608 40.6077 125.895 40.6423V40.6595ZM134.628 28.2183V40.8149L134.507 40.6941C134.242 40.3835 133.908 40.2052 133.506 40.1592C133.103 40.113 132.729 40.1995 132.384 40.418C132.2 40.5445 131.987 40.6423 131.746 40.7111C131.504 40.7803 131.222 40.8149 130.9 40.8149C129.957 40.8149 129.169 40.5935 128.536 40.1504C127.903 39.7077 127.429 39.1555 127.113 38.4939C126.796 37.8326 126.635 37.1134 126.63 36.337C126.624 35.5606 126.776 34.8417 127.087 34.1801C127.397 33.5188 127.866 32.9666 128.493 32.5235C129.12 32.0808 129.911 31.8594 130.866 31.8594C131.222 31.8594 131.539 31.8968 131.815 31.9714C132.091 32.0462 132.327 32.1355 132.522 32.2389C132.718 32.3424 132.882 32.4518 133.014 32.5666C133.146 32.6817 133.247 32.7795 133.316 32.86V30.5651C133.316 29.8978 133.092 29.3227 132.643 28.8396L134.628 28.2183ZM133.316 33.2396C133.201 33.021 133.04 32.8257 132.833 32.6531C132.649 32.5034 132.401 32.3682 132.091 32.2475C131.78 32.1267 131.383 32.0606 130.9 32.049C130.417 32.049 129.994 32.1698 129.632 32.4116C129.269 32.6531 128.968 32.9751 128.726 33.3776C128.485 33.7804 128.303 34.2405 128.182 34.7581C128.062 35.2757 127.998 35.8049 127.993 36.3458C127.987 36.8864 128.044 37.4127 128.165 37.9247C128.286 38.4363 128.464 38.8967 128.7 39.3049C128.936 39.7133 129.235 40.0413 129.597 40.2885C129.96 40.536 130.383 40.6595 130.866 40.6595C131.176 40.6595 131.478 40.6136 131.772 40.5215C132.065 40.4294 132.327 40.2885 132.557 40.0989C132.787 39.9089 132.971 39.6788 133.109 39.4086C133.247 39.1382 133.316 38.819 133.316 38.4508V33.2396ZM154.938 40.6423H154.593H154.109H151.588V40.625C151.872 40.5904 152.096 40.4756 152.269 40.28L152.335 40.2108C152.508 39.9923 152.597 39.7391 152.608 39.4517V38.9341V30.5478L147.941 39.8831L148.355 40.6423H147.095L141.53 30.8412V38.7788C141.53 39.1813 141.625 39.5495 141.815 39.8831C142.005 40.2165 142.29 40.464 142.672 40.625V40.6423H141.427H141.272H140.029V40.625C140.409 40.464 140.699 40.2165 140.901 39.8831C141.102 39.5495 141.208 39.1813 141.22 38.7788V38.7961V30.289L140.443 28.9258H141.927L147.768 39.5725L153.109 28.9258H154.593H154.938V28.9604C154.696 28.972 154.478 29.0755 154.282 29.2711L154.196 29.3745C154.035 29.5701 153.943 29.8116 153.92 30.0994V39.4517C153.92 39.7391 154.012 39.9923 154.196 40.2108L154.265 40.28C154.46 40.4756 154.685 40.5904 154.938 40.625V40.6423ZM246.968 31.7041C246.968 32.1412 247.071 32.5034 247.278 32.7911C247.485 33.0786 247.761 33.3232 248.106 33.5245C248.452 33.7257 248.84 33.8984 249.271 34.0421C249.703 34.1858 250.148 34.3298 250.608 34.4735C251.069 34.6172 251.514 34.7697 251.946 34.9307C252.377 35.0917 252.765 35.2961 253.11 35.5433C253.456 35.7908 253.732 36.0898 253.939 36.4405C254.146 36.7914 254.249 37.22 254.249 37.726C254.249 38.1172 254.174 38.4967 254.025 38.8649C253.875 39.2332 253.628 39.5608 253.283 39.8486C252.938 40.136 252.484 40.369 251.92 40.5473C251.356 40.7256 250.66 40.8149 249.832 40.8149C249.015 40.8149 248.334 40.7746 247.787 40.6941C247.241 40.6136 246.795 40.5272 246.45 40.4353C246.047 40.3202 245.725 40.1935 245.483 40.0555L245.708 38.7961C245.881 39.141 246.151 39.4517 246.519 39.7278C246.83 39.9577 247.252 40.1677 247.787 40.3577C248.322 40.5473 249.004 40.6423 249.832 40.6423C250.442 40.6423 250.953 40.5501 251.368 40.3662C251.782 40.1822 252.113 39.9549 252.36 39.6847C252.607 39.4143 252.785 39.1266 252.895 38.8218C253.004 38.5168 253.059 38.2439 253.059 38.0021C253.059 37.4731 252.88 37.0502 252.524 36.7338C252.167 36.4175 251.719 36.1474 251.178 35.9229C250.637 35.6986 250.056 35.4945 249.435 35.3103C248.814 35.1263 248.233 34.8933 247.692 34.6115C247.152 34.3298 246.703 33.976 246.346 33.5503C245.99 33.1248 245.811 32.561 245.811 31.8594C245.811 31.4795 245.892 31.1088 246.053 30.7462C246.214 30.384 246.461 30.0619 246.795 29.7799C247.129 29.4981 247.551 29.2682 248.063 29.0899C248.575 28.9116 249.188 28.8224 249.901 28.8224C250.557 28.8224 251.117 28.8626 251.583 28.9431C252.049 29.0236 252.432 29.1101 252.731 29.2019C253.076 29.317 253.363 29.4434 253.594 29.5815L253.369 30.8412C253.185 30.5075 252.938 30.2028 252.627 29.9267C252.363 29.6966 252.006 29.4837 251.558 29.2884C251.109 29.0928 250.557 28.995 249.901 28.995C249.314 28.995 248.834 29.0899 248.46 29.2796C248.086 29.4695 247.787 29.7053 247.563 29.9871C247.338 30.2689 247.183 30.5651 247.097 30.8758C247.011 31.1864 246.968 31.4625 246.968 31.7041Z" fill="#C5AC8E"/>
<path fill-rule="evenodd" clip-rule="evenodd" d="M55.2313 80.5711H12.0597H0V80.4546C1.7866 80.2216 3.34059 79.4449 4.66069 78.1236L5.1273 77.6579C5.7483 76.9586 6.1948 76.1626 6.4675 75.2692C6.7391 74.376 6.91339 73.4635 6.99159 72.5312V49.2114H15.8471V78.3572L41.1321 78.4737C45.4824 78.4737 49.483 77.1913 53.1343 74.6285L57.7953 71.2491L55.2313 80.5711ZM6.99159 25.4795V8.79361C6.75799 7.00661 6.00089 5.45303 4.71939 4.13263C3.43729 2.81223 1.8643 1.99641 0 1.68521V1.45242H2.4471H6.99159H15.6143H54.0663V14.2704L52.6677 12.2896C50.7257 9.57061 48.2791 7.45342 45.3274 5.93832C42.3757 4.42403 39.2289 3.66602 35.8888 3.66602H15.8471V25.4795H6.99159ZM201.164 80.5711H198.833H195.571H178.538V80.4546C180.461 80.2216 181.977 79.4449 183.142 78.1236L183.588 77.6579C184.753 76.1816 185.355 74.4732 185.433 72.5312V69.0355V49.2114H194.289V72.5312C194.289 74.4732 194.91 76.1816 196.153 77.6579L196.619 78.1236C197.94 79.4449 199.455 80.2216 201.164 80.4546V80.5711ZM185.433 25.4795V12.4058L178.896 25.4795H176.76L188.813 1.45242H198.833H201.164V1.68521C199.532 1.76281 198.056 2.46212 196.736 3.78342L196.153 4.48181C195.066 5.80301 194.444 7.43352 194.289 9.37552V25.4795H185.433ZM167.031 49.2114L153.914 75.4443L156.711 80.5711H148.205L130.399 49.2114H139.508L152.748 73.3461L164.855 49.2114H167.031ZM116.924 25.4795L110.626 14.3866V25.4795H108.529V10.6579L103.285 1.45242H113.306L126.488 25.4795H116.924ZM110.626 49.2114V67.9867C110.626 70.7057 111.267 73.1911 112.548 75.4443C113.83 77.6967 115.753 79.3672 118.336 80.4546V80.5711H109.927H108.878H100.488V80.4546C103.052 79.3672 105.013 77.6967 106.373 75.4443C107.732 73.1911 108.451 70.7057 108.529 67.9867V68.1032V49.2114H110.626ZM253.645 20.2127C253.645 22.1966 253.961 23.9519 254.592 25.4795H246.201C245.959 24.1673 245.839 22.7607 245.839 21.2612C245.839 18.6976 246.382 16.1926 247.47 13.746C248.558 11.2986 250.227 9.12381 252.48 7.22061C254.733 5.31751 257.588 3.7635 261.044 2.5596C264.502 1.3558 268.638 0.753113 273.454 0.753113C277.882 0.753113 281.669 1.02551 284.815 1.56891C287.961 2.11291 290.545 2.69511 292.564 3.3168C294.894 4.0938 296.836 4.9484 298.39 5.8804L296.875 14.3866C295.633 12.1334 293.962 10.0751 291.865 8.21051C290.078 6.65741 287.67 5.22002 284.64 3.89963C281.611 2.57863 277.882 1.91901 273.454 1.91901C269.493 1.91901 266.25 2.55962 263.725 3.84122C261.2 5.12331 259.18 6.71521 257.666 8.61841C256.151 10.5216 255.102 12.5223 254.519 14.6196C253.937 16.7167 253.645 18.5811 253.645 20.2127ZM298.549 49.2114C299.367 50.1358 300.091 51.1313 300.72 52.198C302.119 54.5669 302.818 57.4611 302.818 60.8785C302.818 63.5198 302.313 66.0835 301.303 68.5689C300.293 71.0549 298.623 73.2687 296.293 75.2108C293.962 77.1528 290.894 78.7263 287.088 79.9302C283.281 81.134 278.581 81.7361 272.988 81.7361C267.473 81.7361 262.87 81.4643 259.18 80.9203C255.49 80.3769 252.48 79.7941 250.15 79.173C247.431 78.3961 245.256 77.5414 243.624 76.6094L245.14 68.1032C246.305 70.4332 248.13 72.5312 250.616 74.3958C252.713 75.9489 255.568 77.3665 259.18 78.6481C262.793 79.9302 267.395 80.5711 272.988 80.5711C277.105 80.5711 280.562 79.9492 283.359 78.7064C286.155 77.464 288.389 75.9299 290.059 74.1041C291.729 72.2786 292.933 70.3366 293.671 68.2781C294.409 66.219 294.778 64.3745 294.778 62.7429C294.778 59.1701 293.574 56.315 291.165 54.1788C289.022 52.2765 286.384 50.6211 283.254 49.2114H298.549Z" fill="#19392C"/>
<path d="M75.3712 0V25.4795H74.0977V0H75.3712ZM75.3712 49.2114V82.4893H74.0977V49.2114H75.3712Z" fill="#C5AC8E"/>
<path d="M228.719 0V25.4795H227.445V0H228.719ZM228.719 49.2114V82.4893H227.445V49.2114H228.719Z" fill="#C5AC8E"/>
</svg>
