<?xml version="1.0" encoding="UTF-8"?>
<svg id="Layer_1" xmlns="http://www.w3.org/2000/svg" version="1.1" viewBox="0 0 1080 1080">
  <!-- Generator: Adobe Illustrator 29.0.1, SVG Export Plug-In . SVG Version: 2.1.0 Build 192)  -->
  <defs>
    <style>
      .st0 {
        fill: #f4f4f4;
      }
    </style>
  </defs>
  <path class="st0" d="M883.2,80c60.2,11.3,105.5,56.6,116.8,116.8v686.3c-11.3,60.2-56.6,105.5-116.8,116.8H196.8c-60.2-11.3-105.5-56.6-116.8-116.8V195c10.2-54.8,60.1-108.6,116.8-115h686.3ZM318.6,190.2c-75.5,5.8-125,60.4-129.1,135-7.7,141.3,6,289.4,0,431.4,4.5,76.3,57.5,129.3,133.9,133.9,142.2-6.5,291.8,8.4,433.1,0,76.4-4.6,129.3-57.5,133.9-133.9,8.4-141.3-6.5-290.9,0-433.1-4.5-75.2-56.6-128.9-132.1-133.8l-439.6.5Z"/>
  <path class="st0" d="M309.6,244l456-.5c37.2,4.7,66.3,33.8,71,71v449.3c-3.4,37.9-33.4,68.1-71,72.8h-449.3c-37.9-3.4-68.1-33.4-72.8-71v-452.8c5.7-35,31.5-61.6,66.1-68.7ZM726.5,297.9c-77.7,2.9-59.7,127.1,18,104.4,58.3-17.1,43.9-106.7-18-104.4ZM534.2,351.9c-149.6,4-235.7,178.6-145.9,299.4,81.7,109.9,251.1,99.8,316.6-20.9,69.3-127.7-25.9-282.4-170.7-278.5Z"/>
  <path class="st0" d="M519.8,405.7c166.1-18.7,214.6,206.2,67.3,261.4-103.3,38.7-206.8-57.4-177.8-163.5,13.3-48.9,59.3-92.2,110.5-97.9Z"/>
</svg>