<?xml version="1.0" encoding="UTF-8"?>
<svg id="Layer_1" xmlns="http://www.w3.org/2000/svg" version="1.1" viewBox="0 0 1080 1080">
  <!-- Generator: Adobe Illustrator 29.0.1, SVG Export Plug-In . SVG Version: 2.1.0 Build 192)  -->
  <defs>
    <style>
      .st0 {
        fill: #f4f4f4;
      }
    </style>
  </defs>
  <path class="st0" d="M893.9,80c54.8,10.4,95.6,51.2,106,106v707.9c-10.6,54.8-51.1,95.6-106,106H186.1c-54.8-10.6-95.6-51.1-106-106V186.1c8.3-50.7,54-99.8,106-106h707.9ZM329.5,253c-101.3,3.7-95.1,160.9,6.6,155.9,102.4-5,95.6-159.7-6.6-155.9ZM568.7,489.7v-35c0-2.9-9.4-12.1-13.6-11.6-28.3,1.8-60.1-2.7-88-.2-15.1,1.4-17.9,10.8-18.9,24.3-7.9,109.2,6.1,227.8,0,337.9,1.2,14,6.2,20.8,20.7,22.4,18.5,2.1,58.5,1.7,77.3,0,13.7-1.2,21.2-4.2,22.5-18.8,5.7-62.8-15.4-192.3,17.1-241.6,17.3-26.1,51.8-33.9,80.2-21.2,25,11.1,33.9,43.4,35.6,68.6,4.4,63.5-3.4,131.9-.1,196,0,6.2,4.7,10.6,9.1,14.3l99.7,1c12.2-.7,14.4-12.4,15.3-22.4,3-34.9.5-81,0-116.9-1.4-97.1,8.1-238.7-123.2-248.7-58.9-4.5-92.1,6-129.7,49.8-1.1,1.3,0,3.4-4.1,2.3ZM278.3,821.5c3.7,3.6,11.4,5.5,16.5,6,18,1.8,59.5,2,77.2,0,8.6-1,17.5-5,20.3-13.9l.4-353.6c-.8-8.1-5.8-15-13.9-16.6-12.6-2.5-75.6-2.2-89.3-.3-9.6,1.3-14.1,6.8-16.4,15.9-1.1,117.8-1.9,236.1.4,353.7,1.4,2.7,2.6,6.6,4.8,8.7Z"/>
</svg>