<?xml version="1.0" encoding="UTF-8"?>
<svg id="Layer_1" xmlns="http://www.w3.org/2000/svg" version="1.1" viewBox="0 0 1080 1080">
  <!-- Generator: Adobe Illustrator 29.0.1, SVG Export Plug-In . SVG Version: 2.1.0 Build 192)  -->
  <defs>
    <style>
      .st0 {
        fill: #f4f4f4;
      }
    </style>
  </defs>
  <path class="st0" d="M916.2,1000.6H161.6c-42.7-9.4-73.3-39.9-82.6-82.6V163.4c9.2-43.7,42.4-76.7,87.2-82.6h743.8c46.8,4.7,84.1,42,88.9,88.8v743.8c-3.8,40.7-41.9,82-82.7,87.2h0ZM413.1,220.9h-185l242.3,355.1-242.3,284.4h51.2l213.8-247.9,7.7,6.6,166.5,241.3h184.1l-253-368.9,231.4-270.7h-53l-203,235.3c-53.8-78.3-109-155.8-160.8-235.3h0Z"/>
  <polygon class="st0" points="776 821 690.7 821 300 260.4 385.3 260.4 768.5 807.8 776 821"/>
</svg>