<svg width="24" height="24" viewBox="0 0 24 24" fill="none" xmlns="http://www.w3.org/2000/svg">
<g clip-path="url(#clip0_3458_402)">
<path d="M12.0003 0.75C9.88159 0.751693 7.80642 1.35165 6.01367 2.4808H17.9706C16.1825 1.35461 14.1134 0.754774 12.0003 0.75Z" fill="#B22234"/>
<path d="M6.01416 2.4808C5.24188 2.9697 4.53206 3.55089 3.90039 4.21152H20.1145C19.4736 3.54898 18.7537 2.96772 17.971 2.4808H6.01416Z" fill="white"/>
<path d="M3.9003 4.21152C3.38969 4.74237 2.93245 5.32209 2.53516 5.94232H21.4792C21.082 5.3221 20.6249 4.74239 20.1144 4.21152H3.9003Z" fill="#B22234"/>
<path d="M2.53522 5.94232C2.18013 6.4915 1.87361 7.0706 1.61914 7.67303H22.3741C22.1264 7.07133 21.827 6.49226 21.4792 5.94232H2.53522Z" fill="white"/>
<path d="M1.61838 7.67303C1.38803 8.23415 1.20344 8.81297 1.06641 9.40384H22.9328C22.7933 8.81275 22.6063 8.23392 22.3734 7.67303H1.61838Z" fill="#B22234"/>
<path d="M1.06607 9.40384C0.930177 9.9728 0.838866 10.5515 0.792969 11.1346H23.213C23.1647 10.5513 23.0709 9.9726 22.9324 9.40384H1.06607Z" fill="white"/>
<path d="M0.793304 11.1346C0.767763 11.4224 0.753317 11.7111 0.75 12C0.751095 12.2888 0.763311 12.5775 0.786621 12.8654H23.2067C23.2322 12.5776 23.2467 12.2889 23.25 12C23.2489 11.7112 23.2367 11.4225 23.2134 11.1346H0.793304Z" fill="#B22234"/>
<path d="M0.787109 12.8654C0.835475 13.4487 0.929296 14.0274 1.06772 14.5962H22.9341C23.07 14.0272 23.1613 13.4485 23.2072 12.8654H0.787109Z" fill="white"/>
<path d="M1.06641 14.5962C1.20585 15.1872 1.39292 15.7661 1.62579 16.327H22.3808C22.6111 15.7659 22.7957 15.187 22.9328 14.5962H1.06641Z" fill="#B22234"/>
<path d="M1.62695 16.327C1.87465 16.9287 2.17408 17.5077 2.52188 18.0577H21.4659C21.821 17.5085 22.1275 16.9294 22.382 16.327H1.62695Z" fill="white"/>
<path d="M2.52148 18.0577C2.91866 18.6779 3.37578 19.2576 3.88626 19.7885H20.1003C20.611 19.2576 21.0682 18.6779 21.4655 18.0577H2.52148Z" fill="#B22234"/>
<path d="M3.88672 19.7885C4.52759 20.451 5.24747 21.0323 6.03015 21.5192H17.987C18.7593 21.0303 19.4691 20.4491 20.1008 19.7885H3.88672Z" fill="white"/>
<path d="M6.0293 21.5192C7.81733 22.6454 9.8864 23.2452 11.9995 23.25C14.1183 23.2483 16.1934 22.6484 17.9862 21.5192H6.0293Z" fill="#B22234"/>
<path d="M12 0.75C9.01631 0.75 6.15483 1.93526 4.04505 4.04505C1.93526 6.15483 0.75 9.01631 0.75 12C0.751472 12.2973 0.764727 12.5944 0.789734 12.8906H12.8906V0.794586C12.5945 0.767959 12.2973 0.753086 12 0.75Z" fill="#3C3B6E"/>
<path d="M7.97396 1.50856C7.82406 1.56328 7.67534 1.62118 7.52791 1.68223L7.69225 1.80711L7.5811 2.16627L7.87554 1.94645L8.17858 2.1768L8.06478 1.8051L8.36782 1.57887H7.99547L7.97396 1.50856ZM9.88225 1.20126L9.76536 1.57884H9.39431L9.69466 1.80713L9.58349 2.16625L9.87791 1.94644L10.181 2.17678L10.0672 1.80514L10.3702 1.57884H9.99788L9.88225 1.20126ZM11.8846 1.20126L11.7677 1.57884H11.3967L11.697 1.80713L11.5859 2.16625L11.8803 1.94644L12.1834 2.17678L12.0695 1.80514L12.3726 1.57884H12.0003L11.8846 1.20126ZM5.07943 3.14735C5.02652 3.1868 4.97397 3.22672 4.92177 3.2671L5.17501 3.45964L5.07943 3.14735ZM6.87867 2.48409L6.76178 2.86167H6.39073L6.69108 3.08996L6.57991 3.44908L6.87433 3.22927L7.1774 3.45961L7.06359 3.08797L7.36661 2.86167H6.9943L6.87867 2.48409ZM8.88106 2.48409L8.76417 2.86167H8.39311L8.69347 3.08996L8.5823 3.44908L8.87672 3.22927L9.17978 3.45961L9.06598 3.08797L9.369 2.86167H8.99669L8.88106 2.48409ZM10.8834 2.48409L10.7666 2.86167H10.3955L10.6959 3.08996L10.5847 3.44908L10.8791 3.22927L11.1822 3.45961L11.0684 3.08797L11.3714 2.86167H10.9991L10.8834 2.48409ZM3.98143 4.11424C3.87047 4.2317 3.76204 4.35154 3.65624 4.47368L3.57631 4.73185L3.87075 4.51204L4.17379 4.74238L4.05999 4.37077L4.36302 4.14445H3.99068L3.98143 4.11424ZM5.87748 3.76687L5.76059 4.14445H5.38954L5.68989 4.37274L5.57872 4.73186L5.87313 4.51205L6.1762 4.74239L6.06239 4.37075L6.36542 4.14445H5.9931L5.87748 3.76687ZM7.87986 3.76687L7.76297 4.14445H7.39192L7.69228 4.37274L7.5811 4.73186L7.87552 4.51205L8.17858 4.74239L8.06478 4.37075L8.36781 4.14445H7.99549L7.87986 3.76687ZM9.88225 3.76687L9.76536 4.14445H9.39431L9.69466 4.37274L9.58349 4.73186L9.87791 4.51205L10.181 4.74239L10.0672 4.37075L10.3702 4.14445H9.99788L9.88225 3.76687ZM11.8846 3.76687L11.7677 4.14445H11.3967L11.697 4.37274L11.5859 4.73186L11.8803 4.51205L12.1834 4.74239L12.0695 4.37075L12.3726 4.14445H12.0003L11.8846 3.76687ZM2.95888 5.32713C2.85523 5.46527 2.75477 5.60578 2.65758 5.74855L2.57518 6.01469L2.86952 5.79487L3.17266 6.02522L3.05886 5.65361L3.3618 5.42729H2.98955L2.95888 5.32713ZM4.87629 5.0497L4.75939 5.42728H4.38834L4.6887 5.65557L4.57752 6.01469L4.87194 5.79488L5.17501 6.02522L5.0612 5.65358L5.36423 5.42728H4.99191L4.87629 5.0497ZM6.87867 5.0497L6.76178 5.42728H6.39073L6.69108 5.65557L6.57991 6.01469L6.87433 5.79488L7.1774 6.02522L7.06359 5.65358L7.36661 5.42728H6.9943L6.87867 5.0497ZM8.88106 5.0497L8.76417 5.42728H8.39311L8.69347 5.65557L8.5823 6.01469L8.87672 5.79488L9.17978 6.02522L9.06598 5.65358L9.369 5.42728H8.99669L8.88106 5.0497ZM10.8834 5.0497L10.7666 5.42728H10.3955L10.6959 5.65557L10.5847 6.01469L10.8791 5.79488L11.1822 6.02522L11.0684 5.65358L11.3714 5.42728H10.9991L10.8834 5.0497ZM2.08144 6.71013C2.0142 6.83614 1.94937 6.96342 1.88698 7.0919L2.17144 7.30806L2.05764 6.93644L2.36067 6.71013H2.08144ZM3.8751 6.33253L3.75821 6.7101H3.38715L3.68751 6.9384L3.57634 7.29751L3.87075 7.07771L4.17382 7.30805L4.06001 6.93641L4.36304 6.7101H3.99072L3.8751 6.33253ZM5.87748 6.33253L5.76059 6.7101H5.38954L5.68989 6.9384L5.57872 7.29751L5.87313 7.07771L6.1762 7.30805L6.06239 6.93641L6.36542 6.7101H5.9931L5.87748 6.33253ZM7.87986 6.33253L7.76297 6.7101H7.39192L7.69228 6.9384L7.5811 7.29751L7.87552 7.07771L8.17858 7.30805L8.06478 6.93641L8.36781 6.7101H7.99549L7.87986 6.33253ZM9.88225 6.33253L9.76536 6.7101H9.39431L9.69466 6.9384L9.58349 7.29751L9.87791 7.07771L10.181 7.30805L10.0672 6.93641L10.3702 6.7101H9.99788L9.88225 6.33253ZM11.8846 6.33253L11.7677 6.7101H11.3967L11.697 6.9384L11.5859 7.29751L11.8803 7.07771L12.1834 7.30805L12.0695 6.93641L12.3726 6.7101H12.0003L11.8846 6.33253ZM2.8739 7.61531L2.75701 7.99288H2.38596L2.68632 8.22118L2.57515 8.58029L2.86956 8.36049L3.17262 8.59083L3.05882 8.21918L3.36185 7.99288H2.98953L2.8739 7.61531ZM4.87629 7.61531L4.75939 7.99288H4.38834L4.6887 8.22118L4.57752 8.58029L4.87194 8.36049L5.17501 8.59083L5.0612 8.21918L5.36423 7.99288H4.99191L4.87629 7.61531ZM6.87867 7.61531L6.76178 7.99288H6.39073L6.69108 8.22118L6.57991 8.58029L6.87433 8.36049L7.1774 8.59083L7.06359 8.21918L7.36661 7.99288H6.9943L6.87867 7.61531ZM8.88106 7.61531L8.76417 7.99288H8.39311L8.69347 8.22118L8.5823 8.58029L8.87672 8.36049L9.17978 8.59083L9.06598 8.21918L9.369 7.99288H8.99669L8.88106 7.61531ZM10.8834 7.61531L10.7666 7.99288H10.3955L10.6959 8.22118L10.5847 8.58029L10.8791 8.36049L11.1822 8.59083L11.0684 8.21918L11.3714 7.99288H10.9991L10.8834 7.61531ZM1.87271 8.89814L1.75582 9.27571H1.38477L1.68512 9.50401L1.57395 9.86312L1.86837 9.64332L2.17143 9.87366L2.05763 9.50201L2.36065 9.27571H1.98834L1.87271 8.89814ZM3.8751 8.89814L3.75821 9.27571H3.38715L3.68751 9.50401L3.57634 9.86312L3.87075 9.64332L4.17382 9.87366L4.06001 9.50201L4.36304 9.27571H3.99072L3.8751 8.89814ZM5.87748 8.89814L5.76059 9.27571H5.38954L5.68989 9.50401L5.57872 9.86312L5.87313 9.64332L6.1762 9.87366L6.06239 9.50201L6.36542 9.27571H5.9931L5.87748 8.89814ZM7.87986 8.89814L7.76297 9.27571H7.39192L7.69228 9.50401L7.5811 9.86312L7.87552 9.64332L8.17858 9.87366L8.06478 9.50201L8.36781 9.27571H7.99549L7.87986 8.89814ZM9.88225 8.89814L9.76536 9.27571H9.39431L9.69466 9.50401L9.58349 9.86312L9.87791 9.64332L10.181 9.87366L10.0672 9.50201L10.3702 9.27571H9.99788L9.88225 8.89814ZM11.8846 8.89814L11.7677 9.27571H11.3967L11.697 9.50401L11.5859 9.86312L11.8803 9.64332L12.1834 9.87366L12.0695 9.50201L12.3726 9.27571H12.0003L11.8846 8.89814ZM2.8739 10.181L2.75701 10.5585H2.38596L2.68632 10.7868L2.57515 11.146L2.86956 10.9261L3.17262 11.1565L3.05882 10.7848L3.36185 10.5585H2.98953L2.8739 10.181ZM4.87629 10.181L4.75939 10.5585H4.38834L4.6887 10.7868L4.57752 11.146L4.87194 10.9261L5.17501 11.1565L5.0612 10.7848L5.36423 10.5585H4.99191L4.87629 10.181ZM6.87867 10.181L6.76178 10.5585H6.39073L6.69108 10.7868L6.57991 11.146L6.87433 10.9261L7.1774 11.1565L7.06359 10.7848L7.36661 10.5585H6.9943L6.87867 10.181ZM8.88106 10.181L8.76417 10.5585H8.39311L8.69347 10.7868L8.5823 11.146L8.87672 10.9261L9.17978 11.1565L9.06598 10.7848L9.369 10.5585H8.99669L8.88106 10.181ZM10.8834 10.181L10.7666 10.5585H10.3955L10.6959 10.7868L10.5847 11.146L10.8791 10.9261L11.1822 11.1565L11.0684 10.7848L11.3714 10.5585H10.9991L10.8834 10.181ZM1.87271 11.4637L1.75582 11.8413H1.38477L1.68512 12.0696L1.57395 12.4287L1.86837 12.2089L2.17143 12.4393L2.05763 12.0676L2.36065 11.8413H1.98834L1.87271 11.4637ZM3.8751 11.4637L3.75821 11.8413H3.38715L3.68751 12.0696L3.57634 12.4287L3.87075 12.2089L4.17382 12.4393L4.06001 12.0676L4.36304 11.8413H3.99072L3.8751 11.4637ZM5.87748 11.4637L5.76059 11.8413H5.38954L5.68989 12.0696L5.57872 12.4287L5.87313 12.2089L6.1762 12.4393L6.06239 12.0676L6.36542 11.8413H5.9931L5.87748 11.4637ZM7.87986 11.4637L7.76297 11.8413H7.39192L7.69228 12.0696L7.5811 12.4287L7.87552 12.2089L8.17858 12.4393L8.06478 12.0676L8.36781 11.8413H7.99549L7.87986 11.4637ZM9.88225 11.4637L9.76536 11.8413H9.39431L9.69466 12.0696L9.58349 12.4287L9.87791 12.2089L10.181 12.4393L10.0672 12.0676L10.3702 11.8413H9.99788L9.88225 11.4637ZM11.8846 11.4637L11.7677 11.8413H11.3967L11.697 12.0696L11.5859 12.4287L11.8803 12.2089L12.1834 12.4393L12.0695 12.0676L12.3726 11.8413H12.0003L11.8846 11.4637Z" fill="white"/>
</g>
<defs>
<clipPath id="clip0_3458_402">
<rect width="24" height="24" fill="white"/>
</clipPath>
</defs>
</svg>
